<svg xmlns="http://www.w3.org/2000/svg" viewBox="0 0 22.95 24.77"><defs><style>.cls-1{fill:#94a3b8;}</style></defs><g id="Layer_2" data-name="Layer 2"><g id="Layer_1-2" data-name="Layer 1"><path class="cls-1" d="M22.6,4.58a1.19,1.19,0,0,0-.85-.35H15.7a4.25,4.25,0,0,0-.32-1.62A4.19,4.19,0,0,0,13.09.32,4.19,4.19,0,0,0,7.57,2.61a4.07,4.07,0,0,0-.32,1.62h-6A1.2,1.2,0,0,0,0,5.43a1.21,1.21,0,0,0,.35.86,1.23,1.23,0,0,0,.85.35h1L3.71,21.77a3.33,3.33,0,0,0,3.31,3h8.91a3.33,3.33,0,0,0,3.31-3L20.72,6.64h1.17a1.2,1.2,0,0,0,.76-.39,1.25,1.25,0,0,0,.3-.81A1.19,1.19,0,0,0,22.6,4.58ZM9.66,18.73v.12a.89.89,0,0,1-.3.56.92.92,0,0,1-.59.22.94.94,0,0,1-.6-.22.89.89,0,0,1-.3-.56V10.14a.9.9,0,0,1,1.79,0v8.59Zm.53-15.79a1.82,1.82,0,0,1,3.1,1.29H9.66A1.81,1.81,0,0,1,10.19,2.94ZM15.1,18.73v.12a.9.9,0,0,1-.9.78.9.9,0,0,1-.89-.78V10.14a.91.91,0,0,1,.3-.56.9.9,0,0,1,.59-.22.94.94,0,0,1,.6.22,1,1,0,0,1,.3.56v8.59Z"/></g></g></svg>