<svg xmlns="http://www.w3.org/2000/svg" viewBox="0 0 21.94 11.91"><defs><style>.cls-1{fill:#94a3b8;}</style></defs><g id="Layer_2" data-name="Layer 2"><g id="Layer_1-2" data-name="Layer 1"><path class="cls-1" d="M12,5a1.09,1.09,0,0,1,.4.92,1.2,1.2,0,0,1-.4.93,1.38,1.38,0,0,1-1,.39,1.25,1.25,0,0,1-1-.39,1.3,1.3,0,0,1-.4-.94A1.2,1.2,0,0,1,10,5a1.35,1.35,0,0,1,1-.38A1.39,1.39,0,0,1,12,5Z"/><path class="cls-1" d="M21.89,5.8a7.12,7.12,0,0,0-1-1.32A13.61,13.61,0,0,0,18.8,2.54,13.18,13.18,0,0,0,15.53.77,12.2,12.2,0,0,0,11,0,12.26,12.26,0,0,0,6.46.77a14.18,14.18,0,0,0-3.3,1.77A12.75,12.75,0,0,0,1.05,4.48a12,12,0,0,0-1,1.32.25.25,0,0,0,0,.34,5.11,5.11,0,0,0,.54.77,11.87,11.87,0,0,0,1,1.14A17.42,17.42,0,0,0,3.16,9.4a11.12,11.12,0,0,0,2.05,1.23,17.13,17.13,0,0,0,2.62.91,12.4,12.4,0,0,0,3.16.37,12.7,12.7,0,0,0,3.17-.37,14.33,14.33,0,0,0,2.6-.91,13.45,13.45,0,0,0,2-1.23,12.09,12.09,0,0,0,1.55-1.35,11.51,11.51,0,0,0,1-1.17c.26-.34.43-.59.53-.74A.34.34,0,0,0,21.89,5.8ZM14.16,7.25a2.87,2.87,0,0,1-.74,1.06,3.44,3.44,0,0,1-1.1.72A3.5,3.5,0,0,1,11,9.28,3.6,3.6,0,0,1,9.64,9a3.8,3.8,0,0,1-1.1-.72A3.81,3.81,0,0,1,7.8,7.25,3.06,3.06,0,0,1,7.53,6,3.11,3.11,0,0,1,7.8,4.68a3.76,3.76,0,0,1,.74-1,3.48,3.48,0,0,1,2.45-1,3.5,3.5,0,0,1,1.33.26,3.28,3.28,0,0,1,1.1.72,2.83,2.83,0,0,1,.74,1A3.11,3.11,0,0,1,14.43,6,3.06,3.06,0,0,1,14.16,7.25Z"/></g></g></svg>