<svg xmlns="http://www.w3.org/2000/svg" viewBox="0 0 5.53 10.27"><defs><style>.cls-1{fill:#94a3b8;}</style></defs><g id="Layer_2" data-name="Layer 2"><g id="Layer_1-2" data-name="Layer 1"><rect class="cls-1" x="2.37" y="8.69" width="0.79" height="1.58"/><path class="cls-1" d="M4.72.81a2.78,2.78,0,0,1,.81,2C5.53,3.48,5,4,4.39,4.49l-.73.71a3,3,0,0,0-.5,1.89v0H2.37a3.89,3.89,0,0,1,.69-2.43l.81-.78c.47-.42.87-.78.87-1.13a2,2,0,1,0-3.95,0H0a2.82,2.82,0,0,1,.81-2,2.8,2.8,0,0,1,2-.81A2.8,2.8,0,0,1,4.72.81Z"/></g></g></svg>